<svg width="64" height="64" fill="none" xmlns="http://www.w3.org/2000/svg"><circle cx="32" cy="32" r="28.5" fill="#373338"/><circle cx="32" cy="32" r="28.5" fill="url(#a)" fill-opacity=".25"/><path d="M49.445 24.558a2 2 0 0 1-.082.865l-5.414 16.694a2 2 0 0 1-1.903 1.383h-.795a2 2 0 0 1-1.902-2.617l4.302-13.266A2 2 0 0 0 41.75 25h-5.983a2 2 0 1 1 0-4h11.468a2 2 0 0 1 1.985 1.752l.226 1.806Z" fill="#fff"/><path d="M18.396 21h-.903a2 2 0 0 0-1.952 2.434l4.111 18.5a2 2 0 0 0 1.952 1.566H24a2 2 0 0 0 1.6-.8l.8-1.067a2 2 0 0 1 3.2 0l.8 1.067a2 2 0 0 0 1.6.8h2.532a2 2 0 0 0 1.908-1.4l4.243-13.5a2 2 0 0 0-1.908-2.6h-.85a2 2 0 0 0-1.89 1.346l-2.624 7.577c-.557 1.61-2.742 1.83-3.61.366l-.2-.336c-.72-1.217-2.482-1.217-3.203 0-.86 1.451-3.052 1.102-3.419-.546l-2.631-11.84A2 2 0 0 0 18.396 21Z" fill="#fff"/><defs><linearGradient id="a" x1="21.75" y1="5.5" x2="42.75" y2="58.5" gradientUnits="userSpaceOnUse"><stop stop-color="#0F6986"/><stop offset="1" stop-color="#AA26E8"/></linearGradient></defs></svg>
